<?xml version="1.0" encoding="utf-8"?>
<!-- Generator: Adobe Illustrator 19.2.1, SVG Export Plug-In . SVG Version: 6.00 Build 0)  -->
<svg version="1.2" baseProfile="tiny" id="Layer_1" xmlns="http://www.w3.org/2000/svg" xmlns:xlink="http://www.w3.org/1999/xlink"
	 x="0px" y="0px" viewBox="0 0 24 24" xml:space="preserve">
<path fill="#010202" d="M14,22c0.8,0,1-1,1-1s0.4-4.1,0.6-5.4c0.1-1.3,0.7-1.9,1.3-2.5c0.6-0.6,0.9-0.7,1.7-3.1
	c0.8-2.4,0.8-8.4,0.8-8.4C19.7,1.5,20,1.3,20,1.3V0.5C17.5,0,12.3,0,12,0c-0.3,0-5.5,0-8,0.5v0.8c0,0,0.2,0.2,0.7,0.3
	c0,0,0,6,0.8,8.4c0.8,2.4,1.1,2.5,1.7,3.1c0.6,0.6,1.1,1.3,1.3,2.5C8.6,16.9,9,21,9,21s0.2,1,1,1"/>
<polygon fill="#010202" points="11,23 11,22 10,22 10,23 9.5,23 9.5,24 11.5,24 11.5,23 "/>
<polygon fill="#010202" points="14,23 14,22 13,22 13,23 12.5,23 12.5,24 14.5,24 14.5,23 "/>
</svg>
