<?xml version="1.0" encoding="utf-8"?>
<!-- Generator: Adobe Illustrator 19.2.1, SVG Export Plug-In . SVG Version: 6.00 Build 0)  -->
<svg version="1.2" baseProfile="tiny" id="Layer_4" xmlns="http://www.w3.org/2000/svg" xmlns:xlink="http://www.w3.org/1999/xlink"
	 x="0px" y="0px" viewBox="0 0 24 24" xml:space="preserve">
<g>
	<path d="M10,19h4c0,0,0.7-0.1,1-1c0,0,1-6.4,1.9-10c-1.7,0.4-3.9,0.5-5.1,0.5c-1.9,0-3.6-0.2-4.8-0.4C8,11.7,9,18,9,18
		S9.1,19,10,19z"/>
	<path d="M18.2,1.3C16.5,0.2,13.7,0,12,0c-1.7,0-4.5,0.2-6.2,1.3c-1.6,1,0.1,4,0.9,5.6c0,0,0,0.1,0,0.1c1.8,0.6,8,0.8,10.6-0.2
		c0,0,0,0,0-0.1C18.1,5.2,19.7,2.3,18.2,1.3z"/>
	<path d="M12,24c-1,0-1-1-1-1c-1,0-1-1-1-1v-2h4v2c0,0,0,1-1,1C13,23,13,24,12,24"/>
</g>
</svg>
